# xmcd
#
# Track frame offsets: 
#        150
#        19416
#        37635
#        54769
#        71932
#        89878
#        101860
#        121371
#        138830
#        158274
#        169309
#        177294
#
# Disc length: 2482 seconds
#
# Revision: 0
# Processed by: cddbd v1.5.2PL0 Copyright (c) Steve Scherf et al.
# Submitted via: ExactAudioCopyFreeDBPlugin 1.0
#
DISCID=9d09b00c
DTITLE=側田 - Never odd or even
DYEAR=1900
DGENRE=
TTITLE0=歌成就今天這個我
TTITLE1=We Touch
TTITLE2=Three two one
TTITLE3=I miss love
TTITLE4=一粒糖
TTITLE5=Super Hero
TTITLE6=命書
TTITLE7=下次無下次
TTITLE8=門徒
TTITLE9=Farmer's rock
TTITLE10=擦擦擦
TTITLE11=Fun享
EXTD=
EXTT0=
EXTT1=
EXTT2=
EXTT3=
EXTT4=
EXTT5=
EXTT6=
EXTT7=
EXTT8=
EXTT9=
EXTT10=
EXTT11=
PLAYORDER=
